# xmcd CD database file
#
# Track frame offsets:
#	150
#	53305
#	76955
#	158175
#	226090
#
# Disc length: 4342 seconds
#
# Revision: 0
# Processed by: cddbd v1.5.2PL0 Copyright (c) Steve Scherf et al.
# Submitted via: CDex 1.70beta2
#
DISCID=2710f405
DTITLE=Wadada Leo Smith - Ten Freedom Summers [CD1]
DYEAR=2011
DGENRE=Jazz
TTITLE0=Dred Scott: 1857
TTITLE1=Mailik Al Shabazzand the People of the Shahada
TTITLE2=Emmett Till: Defiant, Fearless
TTITLE3=Thurgood Marshall and Brown vs. Board of Education: A Dream of Equal Education, 1954
TTITLE4=John F. Kennedy's New Frontier and the Space Age, 1960
EXTD=YEAR: 2011
EXTT0=
EXTT1=
EXTT2=
EXTT3=
EXTT4=
PLAYORDER=
